# xmcd
#
# Track frame offsets:
#	150
#	17507
#	30235
#	45057
#	61147
#	76577
#	89717
#	107550
#	118862
#	136427
#
# Disc length: 2066 seconds
#
# Revision: 0
# Processed by: cddbd v1.5.2PL0 Copyright (c) Steve Scherf et al.
# Submitted via: dBpowerAMP V4.0
#
DISCID=6b08100a
DTITLE=Coffey Anderson - Me and You
DYEAR=1900
DGENRE=
TTITLE0=Go To Mexico
TTITLE1=Young Love
TTITLE2=Angel
TTITLE3=Let Me Love You
TTITLE4=Permission
TTITLE5=Heaven
TTITLE6=Make Love
TTITLE7=Modern Day Hero (Tribute to soldiers)
TTITLE8=All That and More
TTITLE9=I Fall Into Your Arms
EXTD=
EXTT0=
EXTT1=
EXTT2=
EXTT3=
EXTT4=
EXTT5=
EXTT6=
EXTT7=
EXTT8=
EXTT9=
PLAYORDER=
